<svg width="811" height="1205" viewBox="0 0 811 1205" fill="none" xmlns="http://www.w3.org/2000/svg">
<ellipse cx="482" cy="298" rx="108" ry="102" fill="#F3B512"/>
<path d="M443.925 115.229L477.925 288.229" stroke="#F3B512" stroke-width="8" stroke-linecap="round"/>
<path d="M525 170L494.83 290.153" stroke="#F3B512" stroke-width="8" stroke-linecap="round"/>
<path d="M616.018 163.625L516.018 278.625" stroke="#F3B512" stroke-width="8" stroke-linecap="round"/>
<path d="M628.349 259.766L508.349 302.766" stroke="#F3B512" stroke-width="8" stroke-linecap="round"/>
<path d="M684.169 313.996L542.169 319.996" stroke="#F3B512" stroke-width="8" stroke-linecap="round"/>
<path d="M602.735 363.795L524.735 337.795" stroke="#F3B512" stroke-width="8" stroke-linecap="round"/>
<path d="M573.102 409.757L495.102 327.757" stroke="#F3B512" stroke-width="8" stroke-linecap="round"/>
<path d="M518.186 424.206L487.186 326.206" stroke="#F3B512" stroke-width="8" stroke-linecap="round"/>
<path d="M478 462L482 325" stroke="#F3B512" stroke-width="8" stroke-linecap="round"/>
<path d="M350 389L436.748 328.694" stroke="#F3B512" stroke-width="8" stroke-linecap="round"/>
<path d="M291.475 332.035L427.475 314.035" stroke="#F3B512" stroke-width="8" stroke-linecap="round"/>
<path d="M327 267L439.213 298.188" stroke="#F3B512" stroke-width="8" stroke-linecap="round"/>
<path d="M320.087 199.588L459.087 284.588" stroke="#F3B512" stroke-width="8" stroke-linecap="round"/>
<path d="M395 186L461.258 271.679" stroke="#F3B512" stroke-width="8" stroke-linecap="round"/>
<path d="M354.753 927.6C355.853 926.7 356.953 925.8 358.253 924.8C317.853 877.6 314.353 824.7 331.753 768.4C329.953 771.1 327.553 774.3 325.353 777.7C304.953 809.5 298.953 844.5 301.853 881.5C303.553 902.8 309.553 923.1 316.953 942.9C322.853 958.5 325.753 974.6 326.153 991.2C326.453 1006.2 327.253 1021.1 327.453 1036.1C327.653 1050.9 324.753 1065.1 317.953 1078.6C317.553 1072.6 317.553 1066.5 316.753 1060.5C314.453 1042.8 312.353 1025.1 309.153 1007.6C307.853 1000.5 304.053 993.8 301.453 986.9C299.453 981.5 298.053 975.9 295.753 970.6C293.953 966.3 290.553 962.5 289.153 958C281.053 932.7 275.153 907 275.153 880.3C275.153 868.1 275.353 856 275.753 843.8C275.853 841.1 276.653 838.5 277.153 835.6C273.553 836.4 271.353 839.6 270.653 843C268.553 852.4 266.153 861.9 265.653 871.4C264.153 900.1 268.653 928.2 274.853 956.1C274.953 956.4 274.853 956.7 274.853 957.1C235.853 911.5 235.053 863.1 263.853 812.1C262.253 813.4 260.553 814.7 258.953 815.9C254.153 819.5 250.153 823.2 242.853 823.4C232.853 823.6 224.553 830.5 218.053 838C187.453 873.4 174.553 914.3 179.953 961.1C182.953 987 191.953 1011.1 200.753 1035.4C204.953 1047.1 207.353 1059.4 210.753 1071.4C211.453 1074 212.853 1076.5 213.653 1078.3C212.953 1079.7 211.953 1080.8 211.953 1081.9C212.353 1122.4 188.353 1153.1 148.753 1163.1C145.853 1163.8 142.853 1165.8 140.653 1168C128.253 1180.9 116.153 1193.9 100.753 1203.4C99.2532 1204.3 97.5532 1205 95.3532 1205C109.053 1191.9 122.753 1178.8 136.953 1165.2C133.653 1164.2 131.453 1163.6 128.053 1162.6C129.753 1162.1 130.253 1161.8 130.753 1161.8C139.353 1162 143.953 1156.5 148.253 1150C155.353 1139.3 161.353 1128 165.353 1115.4C164.153 1115.9 163.453 1116.2 161.053 1117.2C163.353 1111.5 165.253 1107.2 166.853 1102.8C168.753 1097.7 170.753 1092.6 172.153 1087.3C173.353 1082.6 172.853 1077.5 174.453 1073.1C181.653 1054 174.553 1035.7 171.653 1017.3C166.053 981.8 162.653 946.4 172.453 911.2C176.453 896.9 182.753 883.2 188.153 869.2C188.953 867.1 190.053 865.1 190.653 862.9C141.153 904.3 111.653 957.4 98.9532 1020.6C96.7532 1020 95.0532 1019.5 93.3532 1019.2C91.7532 1019 90.1532 1019.2 87.9532 1019.2C89.1532 1013 90.8532 1007.4 91.1532 1001.7C92.8532 973.2 107.453 949.9 121.353 926.3C121.953 925.3 122.453 924.3 122.353 922.7C119.253 926.5 116.253 930.3 113.153 934.1C121.453 914.4 131.853 895.9 143.953 878.3C152.353 866.1 162.253 855.4 174.553 847.1C178.853 844.2 183.753 842 188.653 839.4C187.953 836.3 177.453 839.2 182.853 831C172.453 838.9 162.353 846.9 153.753 856.8C146.953 864.7 140.253 872.8 133.153 880.6C129.353 884.8 124.353 887.9 120.953 892.3C116.153 898.4 111.553 905 108.353 912C97.5532 935.8 86.8532 959.6 77.0532 983.8C68.4532 1005.1 65.3532 1027.8 61.4532 1050.3C54.7532 1088.1 57.5532 1125.2 69.9532 1161.5C70.0532 1161.8 69.9532 1162.1 69.8532 1162.9C61.6532 1151.4 57.9532 1138.5 55.5532 1125.3C54.9532 1122.2 54.4532 1119 54.2532 1115.9C53.5532 1105.9 51.3532 1096.7 46.5532 1087.5C35.9532 1067 36.3532 1044.7 40.0532 1022.5C46.9532 980.9 66.5532 945 90.9532 911.4C116.953 875.6 147.453 844.1 182.253 816.7C183.853 815.5 185.353 814.2 186.753 813C178.953 807.8 170.153 809.1 161.453 808.7C142.053 807.9 123.353 796.4 121.353 773.7C120.253 762.1 124.253 751.9 130.953 742.6C133.453 739.1 135.153 735.2 137.753 731.7C140.353 728.1 143.153 724.6 146.453 721.7C149.553 719 153.453 719.1 156.853 720.9C153.053 723 149.153 725.2 145.153 727.4C145.353 727.8 145.553 728.2 145.753 728.7C150.453 727 155.053 724.8 159.953 723.9C164.653 723 169.753 722.3 174.553 726.8C162.653 726.7 152.553 730 143.953 737.1C141.853 738.9 139.953 742.2 139.753 744.9C138.653 762.1 148.453 786 172.953 791.8C183.853 794.4 193.253 794.1 203.253 789.1C214.953 783.3 226.353 777.3 235.453 767.7C239.653 763.3 244.553 759.5 249.153 755.5C269.553 737.8 281.953 713.2 301.753 695C305.753 691.3 309.753 687.6 314.553 683.1C296.353 683.3 279.053 681.9 262.353 687.7C253.753 690.7 248.653 697 244.453 704.6C242.853 707.4 240.353 709.7 238.153 712.2C237.453 711.9 236.753 711.6 236.053 711.3C236.553 706.8 237.053 702.4 237.553 697.9C237.853 695.6 238.053 693.3 238.253 690.9C238.353 690.3 238.453 689.4 238.853 689.1C246.353 682.9 253.353 676 261.453 670.7C276.753 660.7 294.253 656.6 311.953 652.7C329.953 648.7 347.853 644 365.453 638.6C371.853 636.6 377.353 631.7 384.253 627.6C376.653 627.2 370.553 627 364.453 626.4C353.053 625.4 343.053 621.5 336.053 611.8C333.653 608.5 331.653 605.1 333.853 600.4C334.553 601.3 335.153 602 335.553 602.7C340.353 612.2 348.453 615.2 358.353 614.3C366.953 613.5 374.853 610.3 381.953 605.3C398.053 593.8 400.853 575 389.353 558.2C376.353 539.3 353.553 533.5 331.153 543.3C322.953 546.9 315.753 551.7 309.753 558.5C305.553 563.3 304.453 568.5 306.453 574.6C306.853 575.9 306.153 577.5 305.953 579C304.453 578.3 302.653 578 301.553 576.9C294.353 569.5 294.953 560.3 294.853 550.2C293.553 551.9 291.753 553.4 291.153 555.3C289.853 559.2 289.153 563.3 288.453 567.4C287.753 571.8 285.953 573.1 282.153 570.7C279.453 569 277.253 566.3 274.753 564C263.353 568.9 262.753 571.6 270.753 589C267.053 587.6 264.053 587 261.553 585.5C250.953 579.3 245.853 569.1 242.253 557.9C241.353 555.2 242.453 551.3 237.953 550.4C231.053 549 224.653 549.1 220.253 555.7C218.353 558.5 219.253 560.8 222.253 562.2C224.153 563.1 226.153 563.8 228.353 564.6C223.853 568.6 214.753 569.1 210.453 566C206.653 563.3 206.453 559.6 209.653 552.5C200.753 550.4 190.553 559 186.753 572.2C183.453 564.4 184.753 557.6 188.253 550.9C192.453 543 199.953 538.8 207.253 534.5C208.653 533.7 209.753 532.4 211.953 530.6C207.853 530.4 205.153 530.5 202.653 529.9C201.153 529.5 199.053 528.1 198.753 526.8C198.353 525.5 199.453 523.2 200.653 522.2C203.753 519.5 207.253 517.3 210.653 514.8C200.253 515.9 190.253 517.5 180.153 517.8C161.453 518.3 142.753 516.9 125.153 510.1C109.453 504 97.4532 493.5 93.0532 476.4C92.2532 473.3 91.0532 469.5 95.6532 467.1C96.1532 468.8 96.8532 470.1 96.9532 471.5C98.3532 483.9 106.653 490.3 117.153 494.7C131.753 500.9 147.153 501.9 162.753 500.8C169.053 500.3 175.353 499.1 181.553 498.2C181.553 497.7 181.453 497.2 181.453 496.7C176.353 494 171.453 490.8 166.053 488.7C157.553 485.2 153.853 476.7 147.253 471.3C145.053 469.5 143.153 467.5 141.553 464.9C144.453 466.9 147.353 468.8 150.953 471.3C151.253 465.7 154.853 466.7 158.253 466.6C164.953 466.5 171.553 466.1 178.253 465.9C178.253 465.3 178.353 464.7 178.353 464.1C172.953 461.9 167.453 459.8 162.053 457.4C134.253 445.3 107.953 430.8 85.8532 409.7C81.7532 405.8 78.0532 401.4 74.6532 396.9C72.8532 394.5 72.0532 391.4 71.1532 388.5C100.153 416.9 136.653 428.4 174.553 436.9C174.853 436.5 175.253 436.1 175.553 435.7C171.453 431.6 167.353 427.5 163.253 423.3C151.053 410.9 138.753 398.7 126.753 386.2C123.953 383.3 119.353 381.1 120.553 375.7C120.653 375.2 119.653 374.4 119.053 373.8C97.4532 350.7 82.9532 323.2 71.6532 294C48.9532 235.4 40.2532 174.4 42.7532 111.7C43.5532 92.4 44.9532 73.1 46.6532 53.9C47.2532 47.6 49.6532 41.4 51.6532 35.3C50.5532 48.8 48.8532 62.2 48.4532 75.7C48.0532 86.3 48.8532 97 49.6532 107.5C53.7532 161 65.9532 212.6 86.2532 262.4C98.5532 292.5 118.153 317.2 139.653 340.8C142.053 343.4 145.153 345.3 147.953 347.5C148.353 347.2 148.753 346.9 149.153 346.6C148.453 345.1 147.953 343.5 147.153 342.1C140.153 330.4 132.653 319 125.953 307C105.553 270.2 90.9532 231.2 81.5532 190.2C79.7532 182.3 77.6532 174 80.8532 165.7C81.1532 164.9 80.8532 163.7 80.6532 162.7C76.1532 138 79.1532 113.5 83.1532 89.2C84.5532 80.4 86.2532 71.1 90.3532 63.4C95.4532 53.9 103.353 45.9 110.053 37.2C111.453 35.4 112.753 33.4 114.453 31.9C115.553 30.9 117.253 30.5 118.653 30C120.153 29.5 121.753 29.2 123.153 28.6C129.953 25.6 136.753 22.6 143.453 19.6C143.753 20.1 143.953 20.6 144.253 21.1C140.753 23.3 137.353 25.6 133.753 27.7C126.553 31.8 121.753 37.9 118.153 45.3C110.253 61.4 107.953 79 103.853 96.1C94.6532 134.5 94.8532 172.9 104.853 210.8C108.553 224.9 115.353 238.5 122.553 251.4C133.553 271.3 146.153 290.3 158.053 309.8C158.653 309.5 159.253 309.2 159.853 309C159.253 307.1 158.753 305.3 158.053 303.4C148.153 275.2 143.053 246.2 141.553 216.4C140.753 198.8 145.553 183.2 154.753 168.7C162.953 155.8 171.053 142.8 175.453 127.9C176.553 124 178.953 120.4 181.253 116.9C181.953 115.8 183.953 115.6 185.353 115C185.653 116.5 186.453 118.1 186.053 119.4C184.453 124 183.053 128.7 180.553 132.8C172.653 145.9 170.253 160.6 168.553 175.3C161.153 240 175.753 300 208.653 355.8C214.253 365.2 221.053 373.9 227.553 382.7C231.053 387.5 235.753 388.1 244.053 385.1C241.553 383 239.053 381.1 236.753 378.9C217.953 361 207.753 338.5 202.553 313.6C197.053 287.5 198.153 261.6 206.753 236.2C208.553 230.9 209.753 225.3 211.953 220.1C214.853 213.4 215.853 213.4 223.653 216.1C223.153 217.1 222.953 218.3 222.253 219C211.353 229.6 210.353 243.1 211.053 257C212.753 291.2 227.353 320 248.653 346C261.553 361.8 276.953 373.9 297.353 377.9C308.553 380.1 320.053 381.2 331.553 382.2C354.953 384.2 375.953 393.1 396.253 404.2C397.353 404.8 398.453 405.5 399.853 406.4C398.653 380.6 397.753 355.3 408.953 331.6C402.553 331.6 399.453 327.9 402.553 322.5C406.053 316.5 410.753 310.8 415.953 306.1C425.553 297.4 437.153 291.8 449.653 288.2C451.753 287.6 453.653 286.4 456.953 284.9C443.253 274.6 436.153 262.2 437.753 246C438.153 242.1 439.553 238.4 441.253 234.7C442.853 247.9 451.753 255.3 460.953 262.3C466.653 266.7 473.153 269 480.553 268.2C478.753 262.7 476.953 257.2 475.153 251.8C475.753 251.3 476.453 250.8 477.053 250.3C481.053 253.4 485.053 256.5 489.453 260C488.753 258.7 488.253 257.7 487.453 256.1C494.653 261 500.553 267 507.753 269.7C524.253 275.9 533.353 289.2 542.353 302.7C547.753 310.8 549.853 320 548.753 329.8C548.453 332.1 549.453 334.7 550.453 336.8C555.453 347.7 557.153 359.1 556.153 371.3C554.253 368.1 552.453 364.9 550.553 361.6C542.153 346.6 528.353 339.7 512.453 335.7C508.753 334.8 505.053 333.9 501.253 333.8C491.253 333.5 485.753 328.8 484.853 319.1C458.653 333.7 441.753 388.4 482.553 424.6C480.253 423.8 478.953 423.3 477.653 422.8C484.453 439.7 513.953 458.1 538.953 460.9C531.153 465.1 523.153 464.8 515.253 463.6C519.753 472.3 524.853 480.7 528.753 489.7C542.053 520.2 538.953 549.2 523.653 578.9C507.153 610.7 483.453 635 454.953 655.3C446.453 661.4 436.853 665.9 428.053 671.5C404.353 686.5 383.253 704.7 366.253 727C357.253 738.8 350.253 752.1 342.353 764.7C331.953 781.4 328.453 800.2 327.753 819.3C326.653 850.3 339.453 875.9 360.853 897.5C370.453 907.2 380.653 916.3 390.053 926.2C405.853 942.8 407.553 959.7 395.553 979.4C390.153 988.4 384.953 997.7 375.953 1003.8C371.053 1007.1 365.653 1009.5 360.253 1011.6C367.153 1004.8 374.053 998 380.753 991C392.853 978.4 392.253 958.5 379.853 946.1C373.153 939.4 366.653 932.5 359.953 925.5C357.953 926.8 356.653 927.7 355.253 928.6C355.153 928.5 354.953 928.1 354.753 927.6ZM150.453 876.1C150.753 876.4 151.053 876.7 151.253 876.9C162.853 865.9 174.553 855 186.153 844C185.553 843.4 184.953 842.8 184.353 842.2C173.153 853.6 161.753 864.9 150.453 876.1ZM522.353 310.7C525.653 312.9 528.453 314.7 531.153 316.5C531.653 316 532.053 315.5 532.553 315C530.953 311.9 529.353 308.9 527.453 305.4C525.753 307.2 524.553 308.4 522.353 310.7ZM206.753 804.8C206.953 805.2 207.153 805.5 207.353 805.9C212.553 802.9 217.753 799.9 222.953 796.9C222.753 796.5 222.453 796.1 222.253 795.6C217.053 798.7 211.853 801.8 206.753 804.8Z" fill="#C90E0E"/>
<path d="M762.453 442.4C765.253 442.8 766.353 444.9 764.553 447.6C761.453 452.2 758.853 457.8 754.453 460.8C727.753 478.9 698.853 492.8 668.953 504.8C664.953 506.4 661.153 508.3 657.253 510C657.353 510.5 657.553 511 657.653 511.4C663.353 510.1 669.253 509.4 674.653 507.4C685.453 503.4 695.853 498.6 706.553 494.4C712.853 491.9 719.353 490 725.853 488C738.553 484.1 751.253 480.2 763.953 476.4C765.853 475.8 767.653 475.3 770.853 474.5C758.353 491.4 739.553 496.2 723.353 506.3C729.453 509.6 727.353 513 724.353 517.1C718.453 525.2 712.453 533.1 703.353 538.1C702.053 538.8 701.853 541.3 701.153 543C701.553 543.6 702.053 544.1 702.453 544.7C711.153 542.8 719.953 541 728.553 539.2C722.953 548.1 714.653 554.4 703.653 555.9C689.853 557.8 675.853 558.5 661.953 559.7C650.453 560.7 639.253 563 628.853 568.3C622.653 571.5 620.953 576.3 619.953 583.1C617.753 597 618.353 612.3 604.753 622.8C607.753 608.2 603.253 595.4 596.453 583.1C597.153 589.5 597.753 596 598.553 602.4C599.353 608.3 598.053 613.5 594.553 618.4C582.453 635.7 565.953 646.2 545.053 647.4C535.253 648 524.953 645.4 515.353 642.7C506.753 640.2 504.453 633.2 508.553 626.9C509.853 634.4 514.853 637.8 521.653 639.6C541.653 644.6 573.953 627.3 577.353 607C579.953 591.2 575.153 578.1 564.453 566.8C559.053 561.1 553.553 555.6 544.953 554.8C546.953 550.8 546.953 550.8 555.153 549.8C550.753 521.1 558.253 496.6 581.653 477.6C568.453 479.7 555.753 491.7 552.553 503.9C551.953 506.3 549.953 508.3 548.553 510.4C547.653 507.9 545.853 505.4 546.053 503C546.753 492.1 547.353 481 549.353 470.3C550.353 464.7 553.553 459.1 557.153 454.6C562.253 448.2 568.353 442.5 574.553 437.1C580.853 431.7 587.853 427.2 594.053 421.3C588.153 424.6 582.053 427.6 576.453 431.4C570.653 435.3 565.253 439.8 559.953 444.4C554.753 448.9 549.853 453.8 544.753 458.5C544.353 458.3 543.953 458.1 543.453 457.9C543.453 456.3 542.953 454.4 543.553 453.1C552.153 434.2 564.953 418.6 584.453 410.6C596.053 405.8 608.853 404 621.153 401.3C634.453 398.3 647.953 395.5 659.353 387.5C675.753 376.1 683.653 359.9 684.653 340.4C685.153 331.7 683.753 322.8 683.353 314C683.253 312.4 683.853 310.8 684.153 309.2C685.353 310.5 687.153 311.7 687.753 313.3C694.453 332.8 695.353 352.7 691.453 372.9C685.153 405.4 669.653 432.3 643.353 452.8C640.353 455.1 637.753 457.9 634.953 460.5C635.153 460.9 635.453 461.2 635.653 461.6C639.553 459.5 643.653 457.8 647.253 455.3C663.853 444 675.453 428.1 686.253 411.6C700.753 389.3 711.953 365.8 715.953 339.2C720.053 311.6 714.953 285.6 703.953 260.3C698.453 247.5 691.253 235.8 681.853 225.4C676.753 219.7 671.553 214.1 666.953 208C665.153 205.6 664.953 202 664.053 198.9C664.553 198.7 664.953 198.5 665.453 198.2C667.953 201.2 670.353 204.2 672.953 207.1C690.753 226.5 706.753 247.4 720.453 269.9C735.953 295.4 742.353 323.1 739.253 352.6C738.453 360.1 734.853 367.7 730.853 374.3C723.653 386.2 715.453 397.6 707.353 408.9C703.153 414.8 698.253 420.3 694.253 426.8C697.653 424.5 701.053 422.1 704.553 419.9C726.453 406.2 743.453 388.5 752.153 363.5C759.453 342.5 765.853 321.4 768.353 299.3C768.653 296.7 768.853 294 769.153 291.4C769.253 291 769.653 290.6 770.653 290.3C776.753 319.7 776.153 348.9 768.453 377.8C760.453 407.8 739.753 429 717.153 448.7C756.453 426.7 790.853 399.9 807.253 355.5C807.653 355.7 808.053 355.9 808.453 356C808.853 357.1 809.353 358.2 809.553 359.4C813.453 378.4 809.153 395.2 795.653 409.2C784.753 420.4 773.553 431.2 762.453 442.4Z" fill="#C90E0E"/>
<path d="M420.253 708.5C416.753 712.6 413.253 716.7 409.253 721.3C411.053 721.3 411.753 721.3 412.653 721.3C399.153 733.6 394.753 750.1 391.253 766.7C385.653 793.1 386.753 819.1 399.153 843.7C409.153 863.5 425.053 874.6 447.553 875C450.853 875.1 454.353 873.2 457.553 871.9C460.153 870.8 462.553 869.1 465.253 867.9C450.353 885.8 431.453 897 408.453 899.9C380.953 903.3 362.353 888.5 358.453 861C354.753 834.8 359.453 809.6 367.953 784.9C374.653 765.4 384.053 747.3 397.753 731.7C401.253 727.7 403.453 722.6 406.953 718.7C410.653 714.5 415.353 711.1 419.553 707.4C419.853 707.7 420.053 708.1 420.253 708.5Z" fill="#C90E0E"/>
<path d="M24.0532 185.8C23.3532 200.6 21.8532 214.8 22.0532 229C22.5532 261.1 32.0532 290.4 51.5532 316.3C62.5532 330.9 72.4532 346.3 83.5532 360.8C89.5532 368.7 97.0532 375.4 103.953 382.6C107.553 386.3 111.353 389.7 115.053 393.3C114.753 393.7 114.553 394 114.253 394.4C112.753 393.6 111.253 392.9 109.853 391.9C78.6532 370.4 48.7532 347.4 22.8532 319.6C8.6532 304.3 2.85321 285.3 0.553209 264.9C-2.14679 240.3 5.3532 218.2 16.1532 196.9C18.1532 192.8 21.4532 189.4 24.0532 185.8Z" fill="#C90E0E"/>
<path d="M227.953 849.6C227.453 851.6 226.953 853.6 226.453 855.6C226.853 855.5 227.253 855.5 227.653 855.4C228.353 857.2 229.953 859.3 229.553 860.8C227.953 867.2 228.653 873.7 227.753 880.1C222.853 916.4 232.253 950.5 243.153 984.4C246.153 993.7 249.853 1002.8 253.253 1012C254.853 1016.5 256.453 1021 257.953 1025.2C250.953 1023.6 244.753 1022.3 238.553 1020.6C229.453 1018.1 223.553 1011.6 219.053 1003.8C209.753 987.7 206.453 969.9 205.553 951.6C204.253 926.6 206.753 902.2 215.453 878.5C218.353 870.6 220.053 862.2 222.653 854.2C223.353 852.1 225.453 850.6 226.853 848.8C227.253 849.2 227.653 849.4 227.953 849.6ZM222.953 927.7C222.553 927.8 222.053 927.9 221.653 928C223.853 937.9 226.053 947.9 228.253 957.8C228.653 957.7 229.053 957.6 229.353 957.6C227.253 947.6 225.153 937.6 222.953 927.7Z" fill="#C90E0E"/>
<path d="M198.353 27.1C200.753 26.1 203.053 24.9 205.553 24C206.453 23.7 208.053 23.8 208.453 24.3C208.953 24.9 208.953 26.6 208.453 27.3C207.253 29.1 205.653 30.6 204.153 32.1C168.053 68.1 142.853 110.8 128.353 159.4C125.053 170.4 125.753 182.7 125.153 194.4C124.753 202.8 125.053 211.2 125.353 219.6C125.753 228.4 126.653 237.2 127.353 246.1C121.653 238.1 118.253 205.1 119.053 170.6C119.653 144.6 125.853 120 134.553 95.6C133.753 96.6 132.853 97.7 132.053 98.7C140.653 73.4 155.553 51.9 176.153 35.5C196.253 19.5 217.353 3.6 244.653 0C228.653 8.5 213.053 16.8 197.453 25.1C197.753 25.8 198.053 26.5 198.353 27.1Z" fill="#C90E0E"/>
<path d="M110.353 1100.7C110.453 1099.3 110.353 1099 110.453 1099C113.853 1096.1 118.953 1093.9 120.353 1090.3C121.653 1086.7 118.653 1081.8 118.453 1077.4C116.453 1041.2 122.053 1006.4 137.553 973.5C139.353 969.7 142.353 966.4 144.753 962.9C145.253 963.2 145.753 963.4 146.153 963.7C146.253 964.4 146.753 965.3 146.553 965.9C142.853 975.3 147.153 984.4 147.653 993.6C148.053 1001.2 149.353 1008.8 149.853 1016.5C150.853 1031.8 151.353 1047.2 146.353 1062C141.653 1076.3 133.753 1088.4 120.953 1096.7C118.053 1098.6 114.253 1099.3 110.353 1100.7Z" fill="#C90E0E"/>
<path d="M79.9532 888.5C68.5532 893 57.6532 896 46.1532 895.7C35.1532 895.4 26.8532 882 32.3532 872.6C36.2532 866 41.6532 859.9 47.6532 855.2C75.6532 833.3 107.253 819.7 142.853 816.5C147.953 816 153.153 817.1 158.353 817.4C158.353 818 158.353 818.7 158.353 819.3C154.853 819.6 151.453 819.9 147.953 820.2C131.053 822 115.753 828.9 100.453 835.5C86.8532 841.3 75.1532 850 64.6532 860.4C61.9532 863 59.6532 866.2 57.7532 869.5C54.1532 875.5 54.3532 879.6 59.2532 884.3C60.8532 885.9 64.3531 886.2 66.7531 885.9C69.2531 885.6 71.6532 883.9 73.0532 883.3C75.4532 885.1 77.3532 886.5 79.9532 888.5Z" fill="#C90E0E"/>
<path d="M190.553 531.6C185.953 533.6 181.353 534.8 177.653 537.4C164.553 546.9 156.353 559.6 154.053 575.8C153.953 576.6 153.853 577.5 153.853 578.3C153.953 585.6 154.553 586.1 161.953 585.9C164.053 585.8 166.153 585.9 168.753 585.9C158.553 594.1 138.553 592.3 131.153 582.6C125.553 575.3 126.553 567.2 129.853 559.4C137.153 542 165.353 525.3 184.153 526.9C188.253 527.3 189.253 528 190.553 531.6Z" fill="#C90E0E"/>
<path d="M671.453 621.4C668.553 628.7 662.453 632.5 655.853 631.9C641.153 630.4 633.053 621.6 632.753 606.9C632.553 595.4 638.353 584.4 646.653 581.9C652.853 580.1 659.253 578.8 665.553 578C668.453 577.6 671.453 578.8 674.353 580.4C669.253 582.8 663.953 584.7 659.153 587.6C651.453 592.2 646.053 598.3 647.953 608.4C648.753 612.4 648.053 616.7 649.353 620.5C651.453 626.6 655.653 628.1 661.753 625.9C664.853 624.6 667.653 623.1 671.453 621.4Z" fill="#C90E0E"/>
<path d="M430.853 809C430.253 813.8 429.753 817.4 429.453 821C428.553 831.3 438.153 841.2 450.153 841.6C454.653 841.8 459.453 840.6 463.553 838.8C470.753 835.8 470.853 834.3 465.553 827.5C468.153 829 469.953 830 471.653 831.1C474.753 825.6 474.153 824.4 464.353 816.2C477.253 817.4 480.453 824.3 475.553 835.8C471.953 844.2 467.453 850.4 459.053 853.7C444.653 859.4 431.353 853.3 426.453 838.6C424.953 834.2 423.653 829.7 422.353 825.3C421.253 821.6 421.653 818.6 424.853 815.9C426.953 814.3 428.453 811.9 430.853 809Z" fill="#C90E0E"/>
<path d="M745.253 345.7C745.253 339.2 745.553 332.7 745.153 326.3C744.053 308 743.953 289.6 741.053 271.6C739.353 261.5 733.053 252.1 728.353 242.5C726.653 239 723.553 236.1 721.253 233.2C723.353 228 715.753 225 717.253 218.7C720.953 223.3 723.853 227.4 727.253 231.2C728.653 232.8 730.753 234.3 732.753 234.6C739.553 235.7 741.153 236.4 742.253 243.8C744.953 262.4 747.453 281 749.553 299.7C751.153 313.5 751.353 327.3 747.453 340.8C746.953 342.5 746.353 344.1 745.753 345.8C745.553 345.8 745.353 345.8 745.253 345.7Z" fill="#C90E0E"/>
<path d="M150.453 876.1C161.753 864.8 173.153 853.6 184.453 842.3C185.053 842.9 185.653 843.5 186.253 844.1C174.653 855.1 162.953 866 151.353 877C151.053 876.7 150.753 876.4 150.453 876.1Z" fill="#C90E0E"/>
<path d="M523.712 312.078C521.797 310.835 521.701 307.914 523.285 306.268V306.268C524.974 304.513 527.645 305.19 528.806 307.332C530.052 309.632 531.258 311.813 532.423 314.012C532.768 314.662 532.644 315.464 532.149 316.009V316.009C531.615 316.596 530.741 316.687 530.079 316.25C528.051 314.913 525.989 313.556 523.712 312.078Z" fill="black" stroke="black"/>
<path d="M206.753 804.8C211.853 801.8 217.053 798.7 222.153 795.7C222.353 796.1 222.653 796.5 222.853 797C217.653 800 212.453 803 207.253 806C207.153 805.6 206.953 805.2 206.753 804.8Z" fill="#C90E0E"/>
<path d="M222.953 927.7C225.053 937.7 227.253 947.6 229.353 957.6C228.953 957.7 228.553 957.8 228.253 957.8C226.053 947.9 223.853 937.9 221.653 928C222.153 927.9 222.553 927.8 222.953 927.7Z" fill="#C90E0E"/>
</svg>
